<?xml version="1.0" encoding="utf-8"?>
<!-- Generator: Adobe Illustrator 23.0.0, SVG Export Plug-In . SVG Version: 6.00 Build 0)  -->
<svg version="1.1" id="Capa_1" xmlns="http://www.w3.org/2000/svg" xmlns:xlink="http://www.w3.org/1999/xlink" x="0px" y="0px"
	 viewBox="0 0 512 512" style="enable-background:new 0 0 512 512;" xml:space="preserve">
<style type="text/css">
	.st0{fill:#D60AC8;stroke:#000000;stroke-miterlimit:10;}
	.st1{fill:#A7F1F8;}
	.st2{fill:#0BE5F3;}
	.st3{fill:#FFD96F;}
	.st4{fill:#FFC065;}
	.st5{fill:#FFFFFF;}
	.st6{fill:#E6E6E6;}
	.st7{fill:#0C0A0B;}
</style>
<rect x="-64" y="-21.1" class="st0" width="610" height="578"/>
<g>
	<path class="st1" d="M430,355.4c13.7,0,24.8,11.1,24.8,24.8c0,13.7-11.1,24.8-24.8,24.8h-82.8c-13.7,0-24.8,11.1-24.8,24.8
		c0,13.7,11.1,24.8,24.8,24.8h16.6c13.7,0,24.8,11.1,24.8,24.8s-11.1,24.8-24.8,24.8H205.3h-31.1h-25.9c-13.7,0-24.8-11.1-24.8-24.8
		c0-13.7,11.1-24.8,24.8-24.8h16.6c13.7,0,24.8-11.1,24.8-24.8S178.6,405,164.9,405H82.1c-13.7,0-24.8-11.1-24.8-24.8
		c0-13.7,11.1-24.8,24.8-24.8H430z"/>
	<path class="st2" d="M423.9,355.4h-20c13.7,0,24.8,11.1,24.8,24.8c0,13.7-11.1,24.8-24.8,24.8h-82.8c-13.7,0-24.8,11.1-24.8,24.8
		s11.1,24.8,24.8,24.8h16.6c13.7,0,24.8,11.1,24.8,24.8c0,13.7-11.1,24.8-24.8,24.8h20c13.7,0,24.8-11.1,24.8-24.8
		s-11.1-24.8-24.8-24.8h-16.6c-13.7,0-24.8-11.1-24.8-24.8c0-13.7,11.1-24.8,24.8-24.8h82.8c13.7,0,24.8-11.1,24.8-24.8
		C448.8,366.5,437.7,355.4,423.9,355.4z"/>
	<circle class="st3" cx="338.8" cy="140" r="82.8"/>
	<path class="st4" d="M338.8,57.2c-6,0-11.9,0.7-17.5,1.9c37.3,8,65.3,41.2,65.3,81s-28,72.9-65.3,81c5.6,1.2,11.5,1.9,17.5,1.9
		c45.7,0,82.8-37.1,82.8-82.8C421.7,94.3,384.6,57.2,338.8,57.2z"/>
	<path class="st5" d="M90.3,189.7c0-27.4,22.3-49.7,49.7-49.7s49.7,22.3,49.7,49.7h16.6c27.4,0,49.7,22.3,49.7,49.7V250
		c0,3.3-2.7,6-6,6H46.6c-3.3,0-6-2.7-6-6v-10.6C40.6,212,62.9,189.7,90.3,189.7"/>
	<path class="st6" d="M200.3,189.7h-16.6c0-27.4-22.3-49.7-49.7-49.7c-3.4,0-6.8,0.3-10,1c22.7,4.6,39.7,24.7,39.7,48.7h16.6
		c27.4,0,49.7,22.3,49.7,49.7V250c0,3.3-2.7,6-6,6h20c3.3,0,6-2.7,6-6v-10.6C250,212,227.7,189.7,200.3,189.7z"/>
</g>
<g>
	<path class="st7" d="M504.5,347.9H7.5c-4.1,0-7.5,3.4-7.5,7.5s3.4,7.5,7.5,7.5h47.3c-3.2,5-5.1,11-5.1,17.3
		c0,17.8,14.5,32.3,32.3,32.3h74.5l0,0h8.3c9.6,0,17.3,7.8,17.3,17.3s-7.8,17.3-17.4,17.3h-16.6c-17.8,0-32.3,14.5-32.3,32.3
		s14.5,32.3,32.3,32.3h215.4c17.8,0,32.3-14.5,32.3-32.3s-14.5-32.3-32.3-32.3h-16.6c-9.6,0-17.3-7.8-17.3-17.3
		c0-9.6,7.8-17.3,17.3-17.3h82.8c17.8,0,32.3-14.5,32.3-32.3c0-6.4-1.9-12.3-5.1-17.3h47.3c4.1,0,7.5-3.4,7.5-7.5
		C512,351.3,508.6,347.9,504.5,347.9z M447.3,380.3c0,9.6-7.8,17.3-17.3,17.3h-82.8c-17.8,0-32.3,14.5-32.3,32.3
		c0,6.4,1.9,12.3,5.1,17.4h-64c-4.1,0-7.5,3.4-7.5,7.5s3.4,7.5,7.5,7.5h99.4l0,0h8.3c9.6,0,17.3,7.8,17.3,17.3
		c0,9.6-7.8,17.3-17.3,17.3H148.3c-9.6,0-17.3-7.8-17.3-17.3c0-9.6,7.8-17.3,17.4-17.3H165c17.8,0,32.3-14.5,32.3-32.3
		c0-6.4-1.9-12.3-5.1-17.3H256c4.1,0,7.5-3.4,7.5-7.5s-3.4-7.5-7.5-7.5h-91.1H82.1c-9.6,0-17.3-7.8-17.3-17.3
		c0-9.6,7.8-17.3,17.3-17.3H430C439.5,362.9,447.3,370.7,447.3,380.3z"/>
	<path class="st7" d="M40.6,263.5H256c4.1,0,7.5-3.4,7.5-7.5v-16.6c0-4.2-0.5-8.2-1.3-12.1l5.8-5.8c2.9-2.9,2.9-7.7,0-10.6
		c-2.9-2.9-7.7-2.9-10.6,0l-1,1c-9.8-17.6-28.5-29.6-50.1-29.6h-9.6c-3.7-28-27.7-49.7-56.7-49.7c-29.1,0-53.3,21.9-56.8,50.1
		c-28.2,3.5-50.1,27.6-50.1,56.8V256C33.1,260.1,36.5,263.5,40.6,263.5z M48.1,239.4c0-23.3,18.9-42.2,42.2-42.2l0,0
		c4.1,0,7.5-3.4,7.5-7.5c0-23.3,18.9-42.2,42.2-42.2s42.2,18.9,42.2,42.2c0,4.1,3.4,7.5,7.5,7.5h16.6c23.3,0,42.2,18.9,42.2,42.2
		v9.1H48.1V239.4z"/>
	<path class="st7" d="M338.8,230.4c49.8,0,90.3-40.5,90.3-90.3s-40.5-90.3-90.3-90.3s-90.3,40.5-90.3,90.3
		C248.5,189.8,289,230.4,338.8,230.4z M338.8,64.7c41.5,0,75.3,33.8,75.3,75.3s-33.8,75.3-75.3,75.3s-75.3-33.8-75.3-75.3
		S297.3,64.7,338.8,64.7z"/>
	<path class="st7" d="M338.8,39.8c4.1,0,7.5-3.4,7.5-7.5V7.5c0-4.1-3.4-7.5-7.5-7.5s-7.5,3.4-7.5,7.5v24.8
		C331.3,36.5,334.7,39.8,338.8,39.8z"/>
	<path class="st7" d="M257.4,69.2c1.5,1.5,3.4,2.2,5.3,2.2s3.8-0.7,5.3-2.2c2.9-2.9,2.9-7.7,0-10.6L250.4,41
		c-2.9-2.9-7.7-2.9-10.6,0c-2.9,2.9-2.9,7.7,0,10.6L257.4,69.2z"/>
	<path class="st7" d="M206.3,147.5h24.8c4.1,0,7.5-3.4,7.5-7.5s-3.4-7.5-7.5-7.5h-24.8c-4.1,0-7.5,3.4-7.5,7.5
		C198.8,144.2,202.2,147.5,206.3,147.5z"/>
	<path class="st7" d="M331.3,247.7v24.8c0,4.1,3.4,7.5,7.5,7.5s7.5-3.4,7.5-7.5v-24.8c0-4.1-3.4-7.5-7.5-7.5
		S331.3,243.6,331.3,247.7z"/>
	<path class="st7" d="M420.3,210.9c-2.9-2.9-7.7-2.9-10.6,0s-2.9,7.7,0,10.6l17.6,17.6c1.5,1.5,3.4,2.2,5.3,2.2s3.8-0.7,5.3-2.2
		c2.9-2.9,2.9-7.7,0-10.6L420.3,210.9z"/>
	<path class="st7" d="M446.5,147.5h24.8c4.1,0,7.5-3.4,7.5-7.5s-3.4-7.5-7.5-7.5h-24.8c-4.1,0-7.5,3.4-7.5,7.5
		C439,144.2,442.4,147.5,446.5,147.5z"/>
	<path class="st7" d="M415,71.4c1.9,0,3.8-0.7,5.3-2.2l17.6-17.6c2.9-2.9,2.9-7.7,0-10.6c-2.9-2.9-7.7-2.9-10.6,0l-17.6,17.6
		c-2.9,2.9-2.9,7.7,0,10.6C411.1,70.7,413.1,71.4,415,71.4z"/>
</g>
</svg>
