<?xml version="1.0" encoding="utf-8"?>
<!-- Generator: Adobe Illustrator 23.0.0, SVG Export Plug-In . SVG Version: 6.00 Build 0)  -->
<svg version="1.1" id="Capa_1" xmlns="http://www.w3.org/2000/svg" xmlns:xlink="http://www.w3.org/1999/xlink" x="0px" y="0px"
	 viewBox="0 0 877.5 414.6" style="enable-background:new 0 0 877.5 414.6;" xml:space="preserve">
<style type="text/css">
	.st0{fill:#831212;}
	.st1{fill:#B7462F;}
	.st2{fill:#93382A;}
	.st3{fill:#FFD3AF;}
	.st4{fill:#FFBC86;}
	.st5{fill:#FFC065;}
	.st6{fill:#00E0D8;}
	.st7{fill:#FFF1D0;}
	.st8{fill:#0C0A0B;}
	.st9{font-family:'BritannicBold';}
	.st10{font-size:72px;}
	.st11{font-size:36px;}
</style>
<rect class="st0" width="877.5" height="414.6"/>
<g>
	<path class="st1" d="M534,154.2l8.4,25.2l0,18.3c0,60.6-40,109.7-100.5,109.7s-100.5-49.1-100.5-109.7v-18.3l8.4-25.2
		c0.5-1.4,1.7-2.3,3.1-2.3h178C532.3,151.9,533.6,152.8,534,154.2z"/>
	<path class="st2" d="M539.1,179.3l-8.4-25.2c-0.5-1.4-1.7-2.3-3.1-2.3h-11c1.4,0,2.7,0.9,3.1,2.3l8.4,25.2l0,18.3
		c0,58.7-37.5,106.6-95,109.5c1.8,0.1,3.7,0.1,5.5,0.1c60.6,0,100.5-49.1,100.5-109.7L539.1,179.3z"/>
	<path class="st3" d="M542.4,179.3L542.4,179.3L542.4,179.3l-8.4-25.2c-0.5-1.4-1.7-2.3-3.1-2.3h-178c-1.4,0-2.7,0.9-3.1,2.3
		l-8.4,25.2l0,0l45.1,9c0.4,0.1,0.8,0.1,1.2,0l54.2-9h0l54.2,9c0.4,0.1,0.8,0.1,1.2,0L542.4,179.3z"/>
	<g>
		<g>
			<path class="st4" d="M530.7,154.2c-0.5-1.4-1.7-2.3-3.1-2.3h-11c1.4,0,2.7,0.9,3.1,2.3l8.4,27.3l-0.1,0.1l11.1-2.2v0L530.7,154.2
				z"/>
		</g>
	</g>
	<path class="st5" d="M420.9,165.6L392.9,57.3c-0.7-2.7-2.6-4.9-5.1-5.9l-42.6-17c-1.7-0.7-3.6,0.1-4.3,1.8l-3.9,9.8
		c-0.7,1.7,0.1,3.6,1.8,4.3l37,14.8c1,0.4,1.7,1.2,2,2.2l25.4,98.3H420.9z"/>
	<path class="st6" d="M519.6,66.7l-60.9,5.9c-3.6,0.4-4.1,5.5-0.6,6.5l19.5,5.6l18.4,20.8c0.5,0.5,1.1,0.9,1.8,1l27.2,5.6l14.6,14.1
		c2.6,2.5,6.8-0.4,5.3-3.7L519.6,66.7L519.6,66.7z"/>
	<path class="st7" d="M525,112.1l-5.5-45.4l-42,18l18.4,20.8c0.5,0.5,1.1,0.9,1.8,1L525,112.1z"/>
</g>
<g>
	<path class="st8" d="M387,238.3h18.3c2.3,0,4.1-1.9,4.1-4.1s-1.9-4.1-4.1-4.1H387c-2.3,0-4.1,1.9-4.1,4.1S384.8,238.3,387,238.3z"
		/>
	<path class="st8" d="M405.3,266.6H387c-2.3,0-4.1,1.9-4.1,4.1s1.9,4.1,4.1,4.1h18.3c2.3,0,4.1-1.9,4.1-4.1
		C409.5,268.4,407.6,266.6,405.3,266.6z"/>
	<path class="st8" d="M423.6,248.3h-18.3c-2.3,0-4.1,1.9-4.1,4.1s1.9,4.1,4.1,4.1h18.3c2.3,0,4.1-1.9,4.1-4.1
		S425.9,248.3,423.6,248.3z"/>
	<path class="st8" d="M555.9,136.5l-31.7-69.6l3.5-6.1c1.1-2,0.5-4.5-1.5-5.7c-2-1.1-4.5-0.5-5.7,1.5l-3.5,6.1l-76.1,7.4
		c-2,0.2-3.5,1.8-3.7,3.7c-0.2,2,1.1,3.8,3,4.4l35.1,10l16.4,18.5l-23.7,41h-47.4L397,56.3c-0.6-2.4-1.9-4.6-3.8-6.3
		c0,0,0,0-0.1-0.1c-0.2-0.2-0.3-0.3-0.5-0.4c-1-0.8-2.1-1.4-3.3-1.9l-45.7-18.3c-2.1-0.9-4.5,0.2-5.4,2.3l-6.4,15.9
		c-0.4,1-0.4,2.2,0,3.2c0.4,1,1.2,1.8,2.3,2.2l39.7,15.9l20.4,79h-10.1c-2.3,0-4.1,1.9-4.1,4.1s1.9,4.1,4.1,4.1h12.3l1.4,5.4h-38.2
		c-2.3,0-4.1,1.9-4.1,4.1s1.9,4.1,4.1,4.1h43.6c0,0,0,0,0,0c0,0,0,0,0,0h59.2c0,0,0,0,0,0s0,0,0,0h61.7c2.3,0,4.1-1.9,4.1-4.1
		s-1.9-4.1-4.1-4.1h-54.5l3.1-5.4h57.5l6.7,20.1l-40.4,8.1l-54.1-9c-0.5-0.1-0.9-0.1-1.4,0l-54.1,9l-40.4-8.1l6.7-20.1h14.2
		c2.3,0,4.1-1.9,4.1-4.1s-1.9-4.1-4.1-4.1h-17.2c-1.8,0-3.4,1.1-3.9,2.8l-9.1,27.4c0,0,0,0,0,0c0,0.2-0.1,0.3-0.1,0.5
		c0,0,0,0.1,0,0.1c0,0,0,0.1,0,0.1c0,0.2,0,0.4,0,0.6c0,0,0,0,0,0v0c0,0,0,0,0,0v18.2c0,30.9,10.2,59.4,28.6,80.3
		c19.1,21.6,46.1,33.5,76.1,33.5c29.9,0,56.9-11.9,76.1-33.5c18.4-20.8,28.6-49.3,28.6-80.3l0-18.2c0,0,0,0,0,0v0c0,0,0,0,0,0
		c0-0.2,0-0.4,0-0.6c0,0,0-0.1,0-0.1c0,0,0-0.1,0-0.1c0-0.2-0.1-0.3-0.1-0.5c0,0,0,0,0,0l-9.1-27.4c-0.6-1.7-2.1-2.8-3.9-2.8h-55.7
		l21.3-36.9l24.2,5l26.2,25.4c0.8,0.8,1.8,1.2,2.9,1.2c0.8,0,1.7-0.2,2.4-0.8C556.1,140.5,556.7,138.3,555.9,136.5z M341.1,46.7
		l3.3-8.2L383.2,54l-6.8,6.8L341.1,46.7z M406.4,161.5L382,66.9l7.3-7.3l26.2,101.9H406.4z M460,161.5h-36l-1.4-5.4h40.5L460,161.5z
		 M538.3,184.4l0,13.2c0,61.1-40.5,105.5-96.4,105.5c-55.8,0-96.4-44.4-96.4-105.5v-13.2l40.7,8.1c0.5,0.1,1,0.1,1.5,0l54.2-9
		l54.1,9c0.2,0,0.5,0.1,0.7,0.1c0.3,0,0.5,0,0.8-0.1L538.3,184.4z M463.4,76.3l29.9-2.9l-16.1,6.9L463.4,76.3z M498.9,102.5
		l-14.5-16.3l31.7-13.5l4.1,34.2L498.9,102.5z M529,110.1l-2.1-17.4l12.5,27.4L529,110.1z"/>
</g>
<text transform="matrix(1 0 0 1 92.5713 229.5818)" class="st9 st10">Caribe </text>
<text transform="matrix(1 0 0 1 590.2853 229.5822)" class="st9 st10">Resorts </text>
<text transform="matrix(1 0 0 1 398.7488 359.9324)" class="st9 st11">Hotel</text>
</svg>
