<?xml version="1.0" encoding="utf-8"?>
<!-- Generator: Adobe Illustrator 23.0.0, SVG Export Plug-In . SVG Version: 6.00 Build 0)  -->
<svg version="1.1" id="Capa_1" xmlns="http://www.w3.org/2000/svg" xmlns:xlink="http://www.w3.org/1999/xlink" x="0px" y="0px"
	 viewBox="0 0 441 414.6" style="enable-background:new 0 0 441 414.6;" xml:space="preserve">
<style type="text/css">
	.st0{fill:#831212;}
	.st1{fill:#FFFFFF;}
	.st2{font-family:'BritannicBold';}
	.st3{font-size:36px;}
</style>
<rect x="-11" y="-7.1" class="st0" width="463" height="432"/>
<g>
	<path d="M318,154.2l8.4,25.2v18.3c0,60.6-40,109.7-100.5,109.7s-100.5-49.1-100.5-109.7v-18.3l8.4-25.2c0.5-1.4,1.7-2.3,3.1-2.3
		h178C316.3,151.9,317.6,152.8,318,154.2z"/>
	<path d="M323.1,179.3l-8.4-25.2c-0.5-1.4-1.7-2.3-3.1-2.3h-11c1.4,0,2.7,0.9,3.1,2.3l8.4,25.2v18.3c0,58.7-37.5,106.6-95,109.5
		c1.8,0.1,3.7,0.1,5.5,0.1c60.6,0,100.5-49.1,100.5-109.7V179.3z"/>
	<path d="M326.4,179.3L326.4,179.3L326.4,179.3l-8.4-25.2c-0.5-1.4-1.7-2.3-3.1-2.3h-178c-1.4,0-2.7,0.9-3.1,2.3l-8.4,25.2l0,0
		l45.1,9c0.4,0.1,0.8,0.1,1.2,0l54.2-9l0,0l54.2,9c0.4,0.1,0.8,0.1,1.2,0L326.4,179.3z"/>
	<g>
		<g>
			<path d="M314.7,154.2c-0.5-1.4-1.7-2.3-3.1-2.3h-11c1.4,0,2.7,0.9,3.1,2.3l8.4,27.3l-0.1,0.1l11.1-2.2l0,0L314.7,154.2z"/>
		</g>
	</g>
	<path d="M204.9,165.6l-28-108.3c-0.7-2.7-2.6-4.9-5.1-5.9l-42.6-17c-1.7-0.7-3.6,0.1-4.3,1.8L121,46c-0.7,1.7,0.1,3.6,1.8,4.3
		l37,14.8c1,0.4,1.7,1.2,2,2.2l25.4,98.3H204.9z"/>
	<path d="M303.6,66.7l-60.9,5.9c-3.6,0.4-4.1,5.5-0.6,6.5l19.5,5.6l18.4,20.8c0.5,0.5,1.1,0.9,1.8,1l27.2,5.6l14.6,14.1
		c2.6,2.5,6.8-0.4,5.3-3.7L303.6,66.7L303.6,66.7z"/>
	<path d="M309,112.1l-5.5-45.4l-42,18l18.4,20.8c0.5,0.5,1.1,0.9,1.8,1L309,112.1z"/>
</g>
<path class="st1" d="M171,238.3h18.3c2.3,0,4.1-1.9,4.1-4.1s-1.9-4.1-4.1-4.1H171c-2.3,0-4.1,1.9-4.1,4.1S168.8,238.3,171,238.3z"/>
<path class="st1" d="M189.3,266.6H171c-2.3,0-4.1,1.9-4.1,4.1s1.9,4.1,4.1,4.1h18.3c2.3,0,4.1-1.9,4.1-4.1
	C193.5,268.4,191.6,266.6,189.3,266.6z"/>
<path class="st1" d="M207.6,248.3h-18.3c-2.3,0-4.1,1.9-4.1,4.1s1.9,4.1,4.1,4.1h18.3c2.3,0,4.1-1.9,4.1-4.1
	S209.9,248.3,207.6,248.3z"/>
<path class="st1" d="M339.9,136.5l-31.7-69.6l3.5-6.1c1.1-2,0.5-4.5-1.5-5.7c-2-1.1-4.5-0.5-5.7,1.5l-3.5,6.1l-76.1,7.4
	c-2,0.2-3.5,1.8-3.7,3.7c-0.2,2,1.1,3.8,3,4.4l35.1,10l16.4,18.5l-23.7,41h-47.4L181,56.3c-0.6-2.4-1.9-4.6-3.8-6.3c0,0,0,0-0.1-0.1
	c-0.2-0.2-0.3-0.3-0.5-0.4c-1-0.8-2.1-1.4-3.3-1.9l-45.7-18.3c-2.1-0.9-4.5,0.2-5.4,2.3l-6.4,15.9c-0.4,1-0.4,2.2,0,3.2
	s1.2,1.8,2.3,2.2l39.7,15.9l20.4,79h-10.1c-2.3,0-4.1,1.9-4.1,4.1s1.9,4.1,4.1,4.1h12.3l1.4,5.4h-38.2c-2.3,0-4.1,1.9-4.1,4.1
	s1.9,4.1,4.1,4.1h43.6l0,0l0,0h59.2l0,0l0,0h61.7c2.3,0,4.1-1.9,4.1-4.1s-1.9-4.1-4.1-4.1h-54.5l3.1-5.4h57.5l6.7,20.1l-40.4,8.1
	l-54.1-9c-0.5-0.1-0.9-0.1-1.4,0l-54.1,9l-40.4-8.1l6.7-20.1h14.2c2.3,0,4.1-1.9,4.1-4.1s-1.9-4.1-4.1-4.1h-17.2
	c-1.8,0-3.4,1.1-3.9,2.8l-9.1,27.4l0,0c0,0.2-0.1,0.3-0.1,0.5v0.1v0.1c0,0.2,0,0.4,0,0.6l0,0l0,0l0,0v18.2
	c0,30.9,10.2,59.4,28.6,80.3c19.1,21.6,46.1,33.5,76.1,33.5c29.9,0,56.9-11.9,76.1-33.5c18.4-20.8,28.6-49.3,28.6-80.3v-18.2l0,0
	l0,0l0,0c0-0.2,0-0.4,0-0.6v-0.1v-0.1c0-0.2-0.1-0.3-0.1-0.5l0,0l-9.1-27.4c-0.6-1.7-2.1-2.8-3.9-2.8h-55.7l21.3-36.9l24.2,5
	l26.2,25.4c0.8,0.8,1.8,1.2,2.9,1.2c0.8,0,1.7-0.2,2.4-0.8C340.1,140.5,340.7,138.3,339.9,136.5z M125.1,46.7l3.3-8.2L167.2,54
	l-6.8,6.8L125.1,46.7z M190.4,161.5L166,66.9l7.3-7.3l26.2,101.9H190.4z M244,161.5h-36l-1.4-5.4h40.5L244,161.5z M322.3,184.4v13.2
	c0,61.1-40.5,105.5-96.4,105.5c-55.8,0-96.4-44.4-96.4-105.5v-13.2l40.7,8.1c0.5,0.1,1,0.1,1.5,0l54.2-9l54.1,9
	c0.2,0,0.5,0.1,0.7,0.1c0.3,0,0.5,0,0.8-0.1L322.3,184.4z M247.4,76.3l29.9-2.9l-16.1,6.9L247.4,76.3z M282.9,102.5l-14.5-16.3
	l31.7-13.5l4.1,34.2L282.9,102.5z M313,110.1l-2.1-17.4l12.5,27.4L313,110.1z"/>
<text transform="matrix(1 0 0 1 182.7488 359.9324)" class="st2 st3">Hotel</text>
</svg>
